<svg width="350" height="350" viewBox="0 0 350 350" fill="none" xmlns="http://www.w3.org/2000/svg">
<rect width="350" height="350" fill="white"/>
<path d="M74 1V349.5" stroke="#E5102C" stroke-width="50"/>
<path d="M112 26H226.874C257.448 26 302 37.5 302 107C299.774 167.151 268.388 181.742 226.874 186H127.287" stroke="#E5102C" stroke-width="50"/>
<path d="M238 63H234V67V231V235H238H250H254V231V67V63H250H238Z" fill="#E5102C" stroke="white" stroke-width="8"/>
<path d="M126 58H122V62V231V235H126H138H142V231V62V58H138H126Z" fill="#E5102C" stroke="white" stroke-width="8"/>
<path d="M125.587 226H133.254C144.438 226 148.907 230.189 149.546 233.63C149.546 233.63 148.664 241.259 149.546 243.055C158.362 261.007 180.056 265.794 189 265.495V279.857C183.41 280.455 168.137 279.408 156.254 272.227C141.4 263.251 133.254 251.582 129.9 246.645C126.546 241.708 122.233 243.504 120.317 235.425C118.783 228.962 123.192 226.449 125.587 226Z" fill="#E5102C"/>
<path d="M250.638 227H243.281C232.549 227 228.26 231.131 227.647 234.524C227.647 234.524 228.493 242.048 227.647 243.818C219.186 261.522 197.583 265.806 189 265.511V279.841C194.365 280.431 209.806 279.668 221.209 272.586C235.464 263.735 243.281 252.227 246.5 247.359C249.719 242.491 253.857 244.261 255.696 236.294C257.168 229.921 252.937 227.443 250.638 227Z" fill="#E5102C"/>
<circle cx="132" cy="67" r="10" fill="#E5102C"/>
<circle cx="244" cy="67" r="10" fill="#E5102C"/>
</svg>
